<?xml version="1.0" encoding="UTF-8"?>
<svg version="1.1" xmlns="http://www.w3.org/2000/svg" width="128" height="128">
<path d="M0 0 C33 0 66 0 100 0 C100 0.66 100 1.32 100 2 C101.32 2 102.64 2 104 2 C104 2.66 104 3.32 104 4 C105.32 4 106.64 4 108 4 C108 4.66 108 5.32 108 6 C108.66 6 109.32 6 110 6 C110 7.32 110 8.64 110 10 C110.66 10 111.32 10 112 10 C112 11.32 112 12.64 112 14 C112.66 14 113.32 14 114 14 C114 47 114 80 114 114 C113.34 114 112.68 114 112 114 C112 115.32 112 116.64 112 118 C111.34 118 110.68 118 110 118 C110 119.32 110 120.64 110 122 C109.34 122 108.68 122 108 122 C108 122.66 108 123.32 108 124 C106.68 124 105.36 124 104 124 C104 124.66 104 125.32 104 126 C102.68 126 101.36 126 100 126 C100 126.66 100 127.32 100 128 C67 128 34 128 0 128 C0 127.34 0 126.68 0 126 C-1.32 126 -2.64 126 -4 126 C-4 125.34 -4 124.68 -4 124 C-5.32 124 -6.64 124 -8 124 C-8 123.34 -8 122.68 -8 122 C-8.66 122 -9.32 122 -10 122 C-10 120.68 -10 119.36 -10 118 C-10.66 118 -11.32 118 -12 118 C-12 116.68 -12 115.36 -12 114 C-12.66 114 -13.32 114 -14 114 C-14 81 -14 48 -14 14 C-13.34 14 -12.68 14 -12 14 C-12 12.68 -12 11.36 -12 10 C-11.34 10 -10.68 10 -10 10 C-10 8.68 -10 7.36 -10 6 C-9.34 6 -8.68 6 -8 6 C-8 5.34 -8 4.68 -8 4 C-6.68 4 -5.36 4 -4 4 C-4 3.34 -4 2.68 -4 2 C-2.68 2 -1.36 2 0 2 C0 1.34 0 0.68 0 0 Z " fill="#00B7EE" transform="translate(14,0)"/>
<path d="M0 0 C1.98 0 3.96 0 6 0 C6 11.22 6 22.44 6 34 C4.68 34 3.36 34 2 34 C2 34.66 2 35.32 2 36 C1.34 36 0.68 36 0 36 C0 34.68 0 33.36 0 32 C-0.66 32 -1.32 32 -2 32 C-2 30.68 -2 29.36 -2 28 C-2.66 28 -3.32 28 -4 28 C-4 27.34 -4 26.68 -4 26 C-4.66 26 -5.32 26 -6 26 C-6 24.68 -6 23.36 -6 22 C-6.66 22 -7.32 22 -8 22 C-8 20.68 -8 19.36 -8 18 C-8.66 18 -9.32 18 -10 18 C-10 15.36 -10 12.72 -10 10 C-9.34 10 -8.68 10 -8 10 C-8 8.68 -8 7.36 -8 6 C-7.34 6 -6.68 6 -6 6 C-6 5.34 -6 4.68 -6 4 C-5.34 4 -4.68 4 -4 4 C-4 3.34 -4 2.68 -4 2 C-2.68 2 -1.36 2 0 2 C0 1.34 0 0.68 0 0 Z " fill="#FF7E00" transform="translate(58,28)"/>
<path d="M0 0 C0.66 0 1.32 0 2 0 C2 1.32 2 2.64 2 4 C7.28 4 12.56 4 18 4 C18 2.68 18 1.36 18 0 C18.66 0 19.32 0 20 0 C20 3.96 20 7.92 20 12 C13.4 12 6.8 12 0 12 C0 8.04 0 4.08 0 0 Z " fill="#A46644" transform="translate(54,66)"/>
<path d="M0 0 C1.32 0 2.64 0 4 0 C4 0.66 4 1.32 4 2 C5.32 2 6.64 2 8 2 C8 2.66 8 3.32 8 4 C8.66 4 9.32 4 10 4 C10 4.66 10 5.32 10 6 C10.66 6 11.32 6 12 6 C12 7.32 12 8.64 12 10 C12.66 10 13.32 10 14 10 C14 12.64 14 15.28 14 18 C13.34 18 12.68 18 12 18 C12 19.32 12 20.64 12 22 C11.34 22 10.68 22 10 22 C10 23.32 10 24.64 10 26 C9.34 26 8.68 26 8 26 C8 26.66 8 27.32 8 28 C7.34 28 6.68 28 6 28 C6 29.32 6 30.64 6 32 C5.34 32 4.68 32 4 32 C4 33.32 4 34.64 4 36 C3.34 36 2.68 36 2 36 C2 35.34 2 34.68 2 34 C1.34 34 0.68 34 0 34 C0 33.34 0 32.68 0 32 C0.66 32 1.32 32 2 32 C2 30.68 2 29.36 2 28 C2.66 28 3.32 28 4 28 C4 26.68 4 25.36 4 24 C5.32 24 6.64 24 8 24 C8 21.36 8 18.72 8 16 C8.66 16 9.32 16 10 16 C10 14.02 10 12.04 10 10 C9.34 10 8.68 10 8 10 C8 8.68 8 7.36 8 6 C6.02 6 4.04 6 2 6 C2 4.68 2 3.36 2 2 C1.34 2 0.68 2 0 2 C0 1.34 0 0.68 0 0 Z " fill="#D605D4" transform="translate(66,28)"/>
<path d="M0 0 C1.32 0 2.64 0 4 0 C4 0.66 4 1.32 4 2 C3.34 2 2.68 2 2 2 C2 3.32 2 4.64 2 6 C0.02 6 -1.96 6 -4 6 C-4 7.32 -4 8.64 -4 10 C-4.66 10 -5.32 10 -6 10 C-6 11.98 -6 13.96 -6 16 C-5.34 16 -4.68 16 -4 16 C-4 18.64 -4 21.28 -4 24 C-2.68 24 -1.36 24 0 24 C0 25.32 0 26.64 0 28 C0.66 28 1.32 28 2 28 C2 29.32 2 30.64 2 32 C2.66 32 3.32 32 4 32 C4 32.66 4 33.32 4 34 C3.34 34 2.68 34 2 34 C2 34.66 2 35.32 2 36 C1.34 36 0.68 36 0 36 C0 34.68 0 33.36 0 32 C-0.66 32 -1.32 32 -2 32 C-2 30.68 -2 29.36 -2 28 C-2.66 28 -3.32 28 -4 28 C-4 27.34 -4 26.68 -4 26 C-4.66 26 -5.32 26 -6 26 C-6 24.68 -6 23.36 -6 22 C-6.66 22 -7.32 22 -8 22 C-8 20.68 -8 19.36 -8 18 C-8.66 18 -9.32 18 -10 18 C-10 15.36 -10 12.72 -10 10 C-9.34 10 -8.68 10 -8 10 C-8 8.68 -8 7.36 -8 6 C-7.34 6 -6.68 6 -6 6 C-6 5.34 -6 4.68 -6 4 C-5.34 4 -4.68 4 -4 4 C-4 3.34 -4 2.68 -4 2 C-2.68 2 -1.36 2 0 2 C0 1.34 0 0.68 0 0 Z " fill="#ED2127" transform="translate(58,28)"/>
<path d="M0 0 C0.66 0 1.32 0 2 0 C2 1.32 2 2.64 2 4 C3.98 4 5.96 4 8 4 C8 5.32 8 6.64 8 8 C8.66 8 9.32 8 10 8 C10 9.98 10 11.96 10 14 C9.34 14 8.68 14 8 14 C8 16.64 8 19.28 8 22 C6.68 22 5.36 22 4 22 C4 23.32 4 24.64 4 26 C3.34 26 2.68 26 2 26 C2 27.32 2 28.64 2 30 C1.34 30 0.68 30 0 30 C0 27.36 0 24.72 0 22 C0.66 22 1.32 22 2 22 C2 20.02 2 18.04 2 16 C2.66 16 3.32 16 4 16 C4 13.36 4 10.72 4 8 C3.34 8 2.68 8 2 8 C2 7.34 2 6.68 2 6 C1.34 6 0.68 6 0 6 C0 4.02 0 2.04 0 0 Z " fill="#4D6DF3" transform="translate(66,30)"/>
<path d="M0 0 C0.66 0 1.32 0 2 0 C2 2.64 2 5.28 2 8 C2.66 8 3.32 8 4 8 C4 8.66 4 9.32 4 10 C4.66 10 5.32 10 6 10 C6 12.64 6 15.28 6 18 C5.34 18 4.68 18 4 18 C4 19.98 4 21.96 4 24 C3.34 24 2.68 24 2 24 C2 27.3 2 30.6 2 34 C1.34 34 0.68 34 0 34 C0 22.78 0 11.56 0 0 Z " fill="#22B14C" transform="translate(64,28)"/>
<path d="M0 0 C0.66 0 1.32 0 2 0 C2 11.22 2 22.44 2 34 C1.34 34 0.68 34 0 34 C0 30.7 0 27.4 0 24 C-0.66 24 -1.32 24 -2 24 C-2 22.02 -2 20.04 -2 18 C-2.66 18 -3.32 18 -4 18 C-4 15.36 -4 12.72 -4 10 C-3.34 10 -2.68 10 -2 10 C-2 9.34 -2 8.68 -2 8 C-1.34 8 -0.68 8 0 8 C0 5.36 0 2.72 0 0 Z " fill="#FFC20E" transform="translate(62,28)"/>
<path d="M0 0 C2.64 0 5.28 0 8 0 C8 0.66 8 1.32 8 2 C8.66 2 9.32 2 10 2 C10 2.66 10 3.32 10 4 C10.66 4 11.32 4 12 4 C12 5.32 12 6.64 12 8 C6.72 8 1.44 8 -4 8 C-4 6.68 -4 5.36 -4 4 C-3.34 4 -2.68 4 -2 4 C-2 3.34 -2 2.68 -2 2 C-1.34 2 -0.68 2 0 2 C0 1.34 0 0.68 0 0 Z " fill="#0DB6EA" transform="translate(60,62)"/>
</svg>
